<?xml version="1.0" encoding="us-ascii" standalone="no"?><svg xmlns="http://www.w3.org/2000/svg" xmlns:xlink="http://www.w3.org/1999/xlink" contentStyleType="text/css" height="769px" preserveAspectRatio="none" style="width:1056px;height:769px;background:#FFFFFF;" version="1.1" viewBox="0 0 1056 769" width="1056px" zoomAndPan="magnify"><defs/><g><rect fill="#FFFFFF" height="121.4063" style="stroke:#181818;stroke-width:1.0;" width="10" x="662" y="593.1406"/><line style="stroke:#181818;stroke-width:0.5;stroke-dasharray:5.0,5.0;" x1="60" x2="60" y1="82.6094" y2="762.8984"/><line style="stroke:#181818;stroke-width:0.5;stroke-dasharray:5.0,5.0;" x1="266.5" x2="266.5" y1="82.6094" y2="762.8984"/><line style="stroke:#181818;stroke-width:0.5;stroke-dasharray:5.0,5.0;" x1="529" x2="529" y1="559.4844" y2="762.8984"/><line style="stroke:#181818;stroke-width:0.5;stroke-dasharray:5.0,5.0;" x1="667" x2="667" y1="82.6094" y2="762.8984"/><line style="stroke:#181818;stroke-width:0.5;stroke-dasharray:5.0,5.0;" x1="1010.5" x2="1010.5" y1="82.6094" y2="762.8984"/><text fill="#000000" font-family="sans-serif" font-size="14" lengthAdjust="spacing" textLength="104" x="5" y="79.5332">Nutzer (Sportler)</text><ellipse cx="60" cy="13.5" fill="#E2E2F0" rx="8" ry="8" style="stroke:#181818;stroke-width:0.5;"/><path d="M60,21.5 L60,48.5 M47,29.5 L73,29.5 M60,48.5 L47,63.5 M60,48.5 L73,63.5 " fill="none" style="stroke:#181818;stroke-width:0.5;"/><rect fill="#E2E2F0" height="31.6094" rx="2.5" ry="2.5" style="stroke:#181818;stroke-width:0.5;" width="81" x="226.5" y="50"/><text fill="#000000" font-family="sans-serif" font-size="14" lengthAdjust="spacing" textLength="67" x="233.5" y="71.5332">FitnessCLI</text><rect fill="#E2E2F0" height="31.6094" rx="2.5" ry="2.5" style="stroke:#181818;stroke-width:0.5;" width="134" x="600" y="50"/><text fill="#000000" font-family="sans-serif" font-size="14" lengthAdjust="spacing" textLength="120" x="607" y="71.5332">TrainingRepository</text><text fill="#000000" font-family="sans-serif" font-size="14" lengthAdjust="spacing" textLength="61" x="977.5" y="79.5332">fitness.db</text><path d="M993,29 C993,19 1011,19 1011,19 C1011,19 1029,19 1029,29 L1029,55 C1029,65 1011,65 1011,65 C1011,65 993,65 993,55 L993,29 " fill="#E2E2F0" style="stroke:#181818;stroke-width:1.5;"/><path d="M993,29 C993,39 1011,39 1011,39 C1011,39 1029,39 1029,29 " fill="none" style="stroke:#181818;stroke-width:1.5;"/><rect fill="#FFFFFF" height="121.4063" style="stroke:#181818;stroke-width:1.0;" width="10" x="662" y="593.1406"/><rect fill="#EEEEEE" height="3" style="stroke:#EEEEEE;stroke-width:1.0;" width="1049.5" x="0" y="113.7852"/><line style="stroke:#000000;stroke-width:1.0;" x1="0" x2="1049.5" y1="113.7852" y2="113.7852"/><line style="stroke:#000000;stroke-width:1.0;" x1="0" x2="1049.5" y1="116.7852" y2="116.7852"/><rect fill="#EEEEEE" height="24.3516" style="stroke:#000000;stroke-width:2.0;" width="158" x="445.75" y="102.6094"/><text fill="#000000" font-family="sans-serif" font-size="13" font-weight="bold" lengthAdjust="spacing" textLength="140" x="451.75" y="120.1045">Initialisierung &amp; Login</text><polygon fill="#181818" points="255,155.3125,265,159.3125,255,163.3125" style="stroke:#181818;stroke-width:1.0;"/><line style="stroke:#181818;stroke-width:1.0;" x1="60" x2="261" y1="159.3125" y2="159.3125"/><text fill="#000000" font-family="sans-serif" font-size="13" font-weight="bold" lengthAdjust="spacing" textLength="7" x="115" y="154.4561">1</text><text fill="#000000" font-family="sans-serif" font-size="13" lengthAdjust="spacing" textLength="86" x="126" y="154.4561">Programmstart</text><polygon fill="#181818" points="655,185.6641,665,189.6641,655,193.6641" style="stroke:#181818;stroke-width:1.0;"/><line style="stroke:#181818;stroke-width:1.0;" x1="267" x2="661" y1="189.6641" y2="189.6641"/><text fill="#000000" font-family="sans-serif" font-size="13" font-weight="bold" lengthAdjust="spacing" textLength="7" x="406.5" y="184.8076">2</text><text fill="#000000" font-family="sans-serif" font-size="13" lengthAdjust="spacing" textLength="110" x="417.5" y="184.8076">get_alle_benutzer()</text><polygon fill="#181818" points="999,216.0156,1009,220.0156,999,224.0156" style="stroke:#181818;stroke-width:1.0;"/><line style="stroke:#181818;stroke-width:1.0;" x1="667" x2="1005" y1="220.0156" y2="220.0156"/><text fill="#000000" font-family="sans-serif" font-size="13" font-weight="bold" lengthAdjust="spacing" textLength="7" x="756" y="215.1592">3</text><text fill="#000000" font-family="sans-serif" font-size="13" lengthAdjust="spacing" textLength="155" x="767" y="215.1592">SELECT * FROM benutzer</text><polygon fill="#181818" points="678,246.3672,668,250.3672,678,254.3672" style="stroke:#181818;stroke-width:1.0;"/><line style="stroke:#181818;stroke-width:1.0;stroke-dasharray:2.0,2.0;" x1="672" x2="1010" y1="250.3672" y2="250.3672"/><text fill="#000000" font-family="sans-serif" font-size="13" font-weight="bold" lengthAdjust="spacing" textLength="7" x="787.5" y="245.5107">4</text><text fill="#000000" font-family="sans-serif" font-size="13" lengthAdjust="spacing" textLength="92" x="798.5" y="245.5107">Liste der Nutzer</text><polygon fill="#181818" points="278,276.7188,268,280.7188,278,284.7188" style="stroke:#181818;stroke-width:1.0;"/><line style="stroke:#181818;stroke-width:1.0;stroke-dasharray:2.0,2.0;" x1="272" x2="666" y1="280.7188" y2="280.7188"/><text fill="#000000" font-family="sans-serif" font-size="13" font-weight="bold" lengthAdjust="spacing" textLength="7" x="426.5" y="275.8623">5</text><text fill="#000000" font-family="sans-serif" font-size="13" lengthAdjust="spacing" textLength="70" x="437.5" y="275.8623">Nutzerdaten</text><polygon fill="#181818" points="71,307.0703,61,311.0703,71,315.0703" style="stroke:#181818;stroke-width:1.0;"/><line style="stroke:#181818;stroke-width:1.0;" x1="65" x2="266" y1="311.0703" y2="311.0703"/><text fill="#000000" font-family="sans-serif" font-size="13" font-weight="bold" lengthAdjust="spacing" textLength="7" x="109.5" y="306.2139">6</text><text fill="#000000" font-family="sans-serif" font-size="13" lengthAdjust="spacing" textLength="97" x="120.5" y="306.2139">Zeige Nutzerliste</text><polygon fill="#181818" points="255,337.4219,265,341.4219,255,345.4219" style="stroke:#181818;stroke-width:1.0;"/><line style="stroke:#181818;stroke-width:1.0;" x1="60" x2="261" y1="341.4219" y2="341.4219"/><text fill="#000000" font-family="sans-serif" font-size="13" font-weight="bold" lengthAdjust="spacing" textLength="7" x="111.5" y="336.5654">7</text><text fill="#000000" font-family="sans-serif" font-size="13" lengthAdjust="spacing" textLength="93" x="122.5" y="336.5654">W&#228;hlt ID (Login)</text><line style="stroke:#181818;stroke-width:1.0;" x1="267" x2="309" y1="371.7734" y2="371.7734"/><line style="stroke:#181818;stroke-width:1.0;" x1="309" x2="309" y1="371.7734" y2="384.7734"/><line style="stroke:#181818;stroke-width:1.0;" x1="268" x2="309" y1="384.7734" y2="384.7734"/><polygon fill="#181818" points="278,380.7734,268,384.7734,278,388.7734" style="stroke:#181818;stroke-width:1.0;"/><text fill="#000000" font-family="sans-serif" font-size="13" font-weight="bold" lengthAdjust="spacing" textLength="7" x="274" y="366.917">8</text><text fill="#000000" font-family="sans-serif" font-size="13" lengthAdjust="spacing" textLength="142" x="285" y="366.917">Setze _aktiver_nutzer_id</text><rect fill="#EEEEEE" height="3" style="stroke:#EEEEEE;stroke-width:1.0;" width="1049.5" x="0" y="413.9492"/><line style="stroke:#000000;stroke-width:1.0;" x1="0" x2="1049.5" y1="413.9492" y2="413.9492"/><line style="stroke:#000000;stroke-width:1.0;" x1="0" x2="1049.5" y1="416.9492" y2="416.9492"/><rect fill="#EEEEEE" height="24.3516" style="stroke:#000000;stroke-width:2.0;" width="153" x="448.25" y="402.7734"/><text fill="#000000" font-family="sans-serif" font-size="13" font-weight="bold" lengthAdjust="spacing" textLength="135" x="454.25" y="420.2686">Training aufzeichnen</text><polygon fill="#181818" points="255,455.4766,265,459.4766,255,463.4766" style="stroke:#181818;stroke-width:1.0;"/><line style="stroke:#181818;stroke-width:1.0;" x1="60" x2="261" y1="459.4766" y2="459.4766"/><text fill="#000000" font-family="sans-serif" font-size="13" font-weight="bold" lengthAdjust="spacing" textLength="7" x="75" y="454.6201">9</text><text fill="#000000" font-family="sans-serif" font-size="13" lengthAdjust="spacing" textLength="166" x="86" y="454.6201">W&#228;hlt "Training aufzeichnen"</text><polygon fill="#181818" points="71,485.8281,61,489.8281,71,493.8281" style="stroke:#181818;stroke-width:1.0;"/><line style="stroke:#181818;stroke-width:1.0;" x1="65" x2="266" y1="489.8281" y2="489.8281"/><text fill="#000000" font-family="sans-serif" font-size="13" font-weight="bold" lengthAdjust="spacing" textLength="14" x="72" y="484.9717">10</text><text fill="#000000" font-family="sans-serif" font-size="13" lengthAdjust="spacing" textLength="165" x="90" y="484.9717">Abfrage (Datum, Dauer, Typ)</text><polygon fill="#181818" points="255,516.1797,265,520.1797,255,524.1797" style="stroke:#181818;stroke-width:1.0;"/><line style="stroke:#181818;stroke-width:1.0;stroke-dasharray:2.0,2.0;" x1="60" x2="261" y1="520.1797" y2="520.1797"/><text fill="#000000" font-family="sans-serif" font-size="13" font-weight="bold" lengthAdjust="spacing" textLength="14" x="101" y="515.3232">11</text><text fill="#000000" font-family="sans-serif" font-size="13" lengthAdjust="spacing" textLength="107" x="119" y="515.3232">Eingabe der Daten</text><polygon fill="#181818" points="457,546.5313,467,550.5313,457,554.5313" style="stroke:#181818;stroke-width:1.0;"/><line style="stroke:#181818;stroke-width:1.0;" x1="267" x2="463" y1="550.5313" y2="550.5313"/><text fill="#000000" font-family="sans-serif" font-size="13" font-weight="bold" lengthAdjust="spacing" textLength="14" x="279" y="545.6748">12</text><text fill="#000000" font-family="sans-serif" font-size="13" lengthAdjust="spacing" textLength="160" x="297" y="545.6748">Instanziiere (z.B. Dauerlauf)</text><rect fill="#E2E2F0" height="31.6094" rx="2.5" ry="2.5" style="stroke:#181818;stroke-width:0.5;" width="121" x="469" y="528.1797"/><text fill="#000000" font-family="sans-serif" font-size="14" lengthAdjust="spacing" textLength="107" x="476" y="549.7129">Training (Modell)</text><polygon fill="#181818" points="650,589.1406,660,593.1406,650,597.1406" style="stroke:#181818;stroke-width:1.0;"/><line style="stroke:#181818;stroke-width:1.0;" x1="267" x2="656" y1="593.1406" y2="593.1406"/><text fill="#000000" font-family="sans-serif" font-size="13" font-weight="bold" lengthAdjust="spacing" textLength="14" x="381.5" y="588.2842">13</text><text fill="#000000" font-family="sans-serif" font-size="13" lengthAdjust="spacing" textLength="148" x="399.5" y="588.2842">training_speichern(Model)</text><polygon fill="#181818" points="999,619.4922,1009,623.4922,999,627.4922" style="stroke:#181818;stroke-width:1.0;"/><line style="stroke:#181818;stroke-width:1.0;" x1="672" x2="1005" y1="623.4922" y2="623.4922"/><text fill="#000000" font-family="sans-serif" font-size="13" font-weight="bold" lengthAdjust="spacing" textLength="14" x="728" y="618.6357">14</text><text fill="#000000" font-family="sans-serif" font-size="13" lengthAdjust="spacing" textLength="209" x="746" y="618.6357">INSERT INTO trainings (Basisdaten)</text><polygon fill="#181818" points="999,649.8438,1009,653.8438,999,657.8438" style="stroke:#181818;stroke-width:1.0;"/><line style="stroke:#181818;stroke-width:1.0;" x1="672" x2="1005" y1="653.8438" y2="653.8438"/><text fill="#000000" font-family="sans-serif" font-size="13" font-weight="bold" lengthAdjust="spacing" textLength="14" x="684" y="648.9873">15</text><text fill="#000000" font-family="sans-serif" font-size="13" lengthAdjust="spacing" textLength="297" x="702" y="648.9873">INSERT INTO dauerlauf_details (Spezifische Daten)</text><polygon fill="#181818" points="999,680.1953,1009,684.1953,999,688.1953" style="stroke:#181818;stroke-width:1.0;"/><line style="stroke:#181818;stroke-width:1.0;" x1="672" x2="1005" y1="684.1953" y2="684.1953"/><text fill="#000000" font-family="sans-serif" font-size="13" font-weight="bold" lengthAdjust="spacing" textLength="14" x="807" y="679.3389">16</text><text fill="#000000" font-family="sans-serif" font-size="13" lengthAdjust="spacing" textLength="51" x="825" y="679.3389">commit()</text><polygon fill="#181818" points="278,710.5469,268,714.5469,278,718.5469" style="stroke:#181818;stroke-width:1.0;"/><line style="stroke:#181818;stroke-width:1.0;stroke-dasharray:2.0,2.0;" x1="272" x2="666" y1="714.5469" y2="714.5469"/><text fill="#000000" font-family="sans-serif" font-size="13" font-weight="bold" lengthAdjust="spacing" textLength="14" x="423.5" y="709.6904">17</text><text fill="#000000" font-family="sans-serif" font-size="13" lengthAdjust="spacing" textLength="69" x="441.5" y="709.6904">Best&#228;tigung</text><polygon fill="#181818" points="71,740.8984,61,744.8984,71,748.8984" style="stroke:#181818;stroke-width:1.0;"/><line style="stroke:#181818;stroke-width:1.0;" x1="65" x2="266" y1="744.8984" y2="744.8984"/><text fill="#000000" font-family="sans-serif" font-size="13" font-weight="bold" lengthAdjust="spacing" textLength="14" x="113" y="740.042">18</text><text fill="#000000" font-family="sans-serif" font-size="13" lengthAdjust="spacing" textLength="83" x="131" y="740.042">"Gespeichert!"</text><!--SRC=[TLFRRfj047tdAwOyL50b_W1BhXI2Krcoaofs5QalQ84n6MLPwEuGoVwU_4b-hCC2Lb3J5vPbpfnpveBgk35TdQCDt0kPLbbLmvvF6i6nfOAxMd-Cu9yEJO4xT4vLUAEfCZKQXa8UmX6eWXiBuNt7PxGGxTl6iaORXw0S_7824IAcWbebMU4TiH6gs-t60-ISnmzMaI5JGRHhIjHwuF7ldmCViMqSYOUJH_RNe5IiSkKGmkCWjoXp7qsJ85YjO6E8IMboXBOJhQ-mRIeoi5e5lMEu_juRMy9FsrJIXDgnA0VogO_q2akea3EbDMOv6bzw50Tzf4UaoHBsw-twzW3VuExnOGSJA4WJkBvmRCanGYc2G_T6Wabz-2Yre9cqUtTB-8rKuHZMFSVSzTFxsxDcsAGG-RBYATj7zoXfaAaNfbUqsU0hez8tvj9zrHtFICMpmN-xClA7du73kTER_6XbQo1AbUpL5QIgGti5XrCRZvmJwLg8L3vq8_Kb5nRb74S_ilhBKkOd4p5dal49ztcHB0PcBKxY-PnuD9cvjhU8rWoB5VlDfTTUmk_Cn-5jxlVhnuCSXuSBWOCeKOwSdqVyNtWv-SXAP4NQzRy4dkb8JjI7qkRPHLFNn9VrcHgIeEFtDwPA5ZGeSMvstkNm1qxLyPVmBm00]--></g></svg>